<?xml version="1.0" encoding="utf-8"?>
<!-- Generator: Adobe Illustrator 24.1.1, SVG Export Plug-In . SVG Version: 6.00 Build 0)  -->
<svg version="1.1"
	 id="svg1" inkscape:export-filename="Logo, Full, Horizontal, Transparent.png" inkscape:export-xdpi="96" inkscape:export-ydpi="96" inkscape:version="1.3 (0e150ed6c4, 2023-07-21)" sodipodi:docname="Logo, Full, Horizontal, Transparent.svg" xmlns:inkscape="http://www.inkscape.org/namespaces/inkscape" xmlns:sodipodi="http://sodipodi.sourceforge.net/DTD/sodipodi-0.dtd" xmlns:svg="http://www.w3.org/2000/svg"
	 xmlns="http://www.w3.org/2000/svg" xmlns:xlink="http://www.w3.org/1999/xlink" x="0px" y="0px" viewBox="0 0 1901 610.9"
	 style="enable-background:new 0 0 1901 610.9;" xml:space="preserve">
<style type="text/css">
	.st0{enable-background:new    ;}
	.st1{fill:#004F71;}
	.st2{fill:#FBB81C;}
</style>
<sodipodi:namedview  bordercolor="#000000" borderopacity="0.25" id="namedview1" inkscape:current-layer="layer4" inkscape:cx="402.16698" inkscape:cy="15.467961" inkscape:deskcolor="#d1d1d1" inkscape:document-units="mm" inkscape:pagecheckerboard="0" inkscape:pageopacity="0.0" inkscape:showpageshadow="2" inkscape:window-height="1676" inkscape:window-maximized="1" inkscape:window-width="2880" inkscape:window-x="-12" inkscape:window-y="-12" inkscape:zoom="0.45254834" pagecolor="#ffffff" showborder="true" showguides="false">
	
		<sodipodi:guide  id="guide1" inkscape:color="rgb(0,134,229)" inkscape:label="" inkscape:locked="false" orientation="0,1" position="-1125.1059,-24972.003">
		</sodipodi:guide>
	
		<sodipodi:guide  id="guide3" inkscape:color="rgb(0,134,229)" inkscape:label="" inkscape:locked="false" orientation="-1,0" position="-992.81422,-24839.712">
		</sodipodi:guide>
	<sodipodi:guide  id="guide2" inkscape:locked="false" orientation="1,0" position="-856.77044,-24988.489"></sodipodi:guide>
	<sodipodi:guide  id="guide4" inkscape:locked="false" orientation="0,-1" position="130.90345,159.3825"></sodipodi:guide>
	<sodipodi:guide  id="guide5" inkscape:locked="false" orientation="0,-1" position="130.90345,78.934501"></sodipodi:guide>
</sodipodi:namedview>
<defs>
	
		<inkscape:path-effect  apply_no_radius="true" apply_with_radius="true" chamfer_steps="1" effect="fillet_chamfer" flexible="false" hide_knots="false" id="path-effect6" is_visible="true" lpeversion="1" method="auto" mode="F" nodesatellites_param="F,0,0,1,0,30.042352,0,1 @ F,0,0,1,0,0.68770051,0,1 @ F,0,0,1,0,0.68770051,0,1 @ F,0,0,1,0,0.68770051,0,1" only_selected="false" radius="0" unit="px" use_knot_distance="true">
		</inkscape:path-effect>
	
		<inkscape:path-effect  apply_no_radius="true" apply_with_radius="true" chamfer_steps="1" effect="fillet_chamfer" flexible="false" hide_knots="false" id="path-effect5" is_visible="true" lpeversion="1" method="auto" mode="F" nodesatellites_param="F,0,0,1,0,0,0,1 @ F,0,0,1,0,0,0,1 @ F,0,0,1,0,0,0,1 @ F,0,0,1,0,0,0,1 @ F,0,0,1,0,0,0,1 @ F,0,0,1,0,0,0,1 @ F,0,0,1,0,0,0,1 @ F,0,0,1,0,0,0,1" only_selected="false" radius="0" unit="px" use_knot_distance="true">
		</inkscape:path-effect>
	
		<inkscape:path-effect  apply_no_radius="true" apply_with_radius="true" chamfer_steps="1" effect="fillet_chamfer" flexible="false" hide_knots="false" id="path-effect4" is_visible="true" lpeversion="1" method="auto" mode="F" nodesatellites_param="F,0,0,1,0,1.5,0,1 @ F,0,0,1,0,1.5,0,1 @ F,0,0,1,0,1.5,0,1 @ F,0,0,1,0,1.5,0,1" only_selected="false" radius="0" unit="px" use_knot_distance="true">
		</inkscape:path-effect>
	
		<inkscape:path-effect  apply_no_radius="true" apply_with_radius="true" chamfer_steps="1" effect="fillet_chamfer" flexible="false" hide_knots="false" id="path-effect3" is_visible="true" lpeversion="1" method="auto" mode="F" nodesatellites_param="F,0,0,1,0,42.941861,0,1 @ F,0,0,1,0,42.941861,0,1 @ F,0,0,1,0,0,0,1 @ F,0,0,1,0,0,0,1" only_selected="false" radius="0" unit="px" use_knot_distance="true">
		</inkscape:path-effect>
	
		<inkscape:path-effect  apply_no_radius="true" apply_with_radius="true" chamfer_steps="1" effect="fillet_chamfer" flexible="false" hide_knots="false" id="path-effect2" is_visible="true" lpeversion="1" method="auto" mode="F" nodesatellites_param="F,0,0,1,0,0,0,1 @ F,0,0,1,0,0,0,1 @ F,0,0,1,0,0,0,1 @ F,0,0,1,0,0,0,1" only_selected="false" radius="0" unit="px" use_knot_distance="true">
		</inkscape:path-effect>
	
		<inkscape:path-effect  apply_no_radius="true" apply_with_radius="true" chamfer_steps="1" effect="fillet_chamfer" flexible="false" hide_knots="false" id="path-effect1" is_visible="true" lpeversion="1" method="auto" mode="F" nodesatellites_param="F,0,0,1,0,38.193314,0,1 @ F,0,0,1,0,1.5,0,1 @ F,0,0,1,0,1.5,0,1 @ F,0,0,1,0,1.5,0,1" only_selected="false" radius="5.6692913" unit="px" use_knot_distance="true">
		</inkscape:path-effect>
</defs>
<g id="layer6" transform="translate(-1125.1059,-1221.7465)" inkscape:groupmode="layer" inkscape:label="Background">
	<g>
		<g class="st0">
			<path class="st1" d="M2010.6,1673.4c-26.4,0-50.3-6.7-71.5-20.1c-21.2-13.4-38-31.4-50.2-54.1c-12.2-22.6-18.3-48.6-18.3-77.8
				c0-29.2,6.1-55.4,18.3-78.4c12.2-23,28.8-41.1,49.9-54.1c21-13,45-19.5,71.8-19.5c19.6,0,37.3,3.8,53.2,11.4
				c15.8,7.6,28.7,18.1,38.8,31.5c10,13.4,15.6,28.7,16.8,46v126.2c-1.2,17.2-6.7,32.6-16.5,46c-9.8,13.4-22.6,23.9-38.5,31.5
				C2048.6,1669.6,2030.6,1673.4,2010.6,1673.4z M2029.8,1589.9c19.6,0,35.4-6.4,47.2-19.2c11.8-12.8,17.7-29.4,17.7-49.9
				c0-13.2-2.6-24.9-7.8-35.2c-5.2-10.2-12.8-18.2-22.8-24c-10-5.8-21.4-8.7-34.3-8.7c-12.4,0-23.5,2.9-33.3,8.7
				c-9.8,5.8-17.6,13.9-23.4,24.3c-5.8,10.4-8.7,22.2-8.7,35.5s2.9,25,8.7,35.5c5.8,10.4,13.6,18.5,23.4,24.3
				C2006.3,1587,2017.4,1589.9,2029.8,1589.9z M2091.1,1667.4v-78.7l13.8-71.5l-13.8-70.3v-71.5h90.7v292H2091.1z"/>
			<path class="st1" d="M2336.3,1669.2l-120.2-293.8h99.7l76.3,232.5h-36.7l77.5-232.5h99.7l-125,293.8H2336.3z M2261.2,1790.6
				l87.7-189.9l58.9,68.5l-51.7,121.4H2261.2z"/>
			<path class="st1" d="M2567,1667.4v-292h92.5v292H2567z M2754.5,1667.4v-170.7c0-14.4-4.5-25.7-13.5-34
				c-9-8.2-20.1-12.3-33.3-12.3c-9.2,0-17.4,1.9-24.6,5.7c-7.2,3.8-12.9,9.1-17.1,15.9c-4.2,6.8-6.3,15-6.3,24.6l-35.5-16.2
				c0-22.8,5.1-42.6,15.3-59.2c10.2-16.6,23.8-29.4,40.9-38.5c17-9,36.6-13.5,58.6-13.5c20,0,38.2,4.6,54.4,13.8
				c16.2,9.2,29.2,22,39.1,38.5c9.8,16.4,14.7,36.1,14.7,58.9v186.9H2754.5z M2940.8,1667.4v-170.7c0-14.4-4.5-25.7-13.5-34
				c-9-8.2-19.9-12.3-32.7-12.3c-8.8,0-16.9,1.9-24.3,5.7c-7.4,3.8-13.1,9.1-17.1,15.9c-4,6.8-6,15-6,24.6l-53.5-7.2
				c1.2-24.8,7.2-46.3,18-64.3s25.4-31.8,43.9-41.5c18.4-9.6,39.1-14.4,61.9-14.4c22,0,41.9,4.7,59.5,14.1
				c17.6,9.4,31.4,22.7,41.5,40c10,17.2,15,38.1,15,62.5v181.5H2940.8z"/>
		</g>
	</g>
</g>
<g id="layer4" transform="translate(-1125.1059,-1221.7465)" inkscape:groupmode="layer" inkscape:label="Logo">
	<path id="path14-2" sodipodi:nodetypes="ccccccccccccccccccccccccccccccccccccccccccccccccccccc" class="st2" d="M1471.8,1832.6
		c45.6,0,82.6-37,82.6-82.6v-168.4c0-45.6-37-82.6-82.6-82.6h-75.9c-18.2,0-33-14.8-33-33v-161.8c0-14.6,11.8-26.4,26.4-26.4h82.6
		c14.6,0,26.4,11.8,26.4,26.4v49.5c0,58.4,47.3,105.7,105.7,105.7h49.5c14.6,0,26.4,11.8,26.4,26.4v82.6c0,14.6-11.8,26.4-26.4,26.4
		h-43.6l-1.9,56.1h45.5c45.6,0,82.6-37,82.6-82.6v-82.6c0-45.6-37-82.6-82.6-82.6h-49.5c-27.4,0-49.5-22.2-49.5-49.5v-49.5
		c0-45.6-37-82.6-82.6-82.6h-82.6c-45.6,0-82.6,37-82.6,82.6v168.4c0,45.6,37,82.6,82.6,82.6h75.9c18.2,0,33,14.8,33,33v161.8
		c0,14.6-11.8,26.4-26.4,26.4h-82.6c-14.6,0-26.4-11.8-26.4-26.4v-49.5c0-58.4-47.3-105.7-105.7-105.7h-49.5
		c-14.6,0-26.4-11.8-26.4-26.4v-82.6c0-14.6,11.8-26.4,26.4-26.4h42.9v-56.1l-42.9,0c-45.6,0-82.6,37-82.6,82.6v82.6
		c0,45.6,37,82.6,82.6,82.6h49.5c27.4,0,49.5,22.2,49.5,49.5v49.5c0,45.6,37,82.6,82.6,82.6H1471.8z"/>
</g>
</svg>
